<?xml version="1.0" encoding="UTF-8"?><svg id="Camada_1" xmlns="http://www.w3.org/2000/svg" viewBox="0 0 1080 1080"><defs><style>.cls-1{fill:#f8ebdc;}</style></defs><path class="cls-1" d="M780.16,265.91h-1.77v.11c.86,3.83,1.65,7.72,2.34,11.66,45.38,3.32,81.28,41.27,81.28,87.45v374.19c0,104.19-84.76,188.96-188.96,188.96h-219.13c-120.03,0-141.17-111.17-142.37-182.21v-393.4c0-54.98,44.69-99.74,99.73-99.74,65.9,0,75.79,62.53,75.79,99.74v368.02h11.66v-368.02c0-58.7,36.29-99.74,88.19-99.74s87.85,41.04,87.85,99.74v368.02h11.72v-368.02c0-65.61-40.92-111.45-99.56-111.45-44.64,0-79.05,26.41-93.05,67.84-10.92-43.61-39.67-67.84-82.59-67.84-61.44,0-111.45,50.01-111.45,111.45v256.05h-.06v130.6c0,1.31,0,2.63.06,3.94.17,21.32,2,40.92,5.38,59.04l2.34,11.77c18.46,80.93,69.56,125.91,146.37,125.91h219.13c110.65,0,200.67-90.02,200.67-200.67v-374.19c0-52.87-41.44-96.19-93.56-99.22Z"/><path class="cls-1" d="M780.16,336.73c-.17-25.43-2.68-48.64-7.37-69.44-18.17-81.79-69.44-127.28-146.72-127.28h-219.13c-110.65,0-200.67,90.02-200.67,200.67v374.14c0,52.87,41.44,96.25,93.56,99.28h1.95l-2.17-10.63c-.06-.4-.17-.8-.23-1.2-45.44-3.26-81.39-41.21-81.39-87.45v-374.14c0-104.19,84.76-188.95,188.96-188.95h219.13c120.03,0,141.17,111.11,142.37,182.21v391.8c0,54.75-43.55,100.54-98.31,101.28-67.21.86-77.22-62.18-77.22-99.74v-367.96h-11.66v367.96c0,58.76-36.29,99.74-88.19,99.74s-87.85-40.98-87.85-99.74v-367.96h-11.72v367.96c0,65.61,40.92,111.45,99.56,111.45,44.64,0,79.05-26.41,93.05-67.79,10.91,43.67,39.78,67.9,82.82,67.79,61.21-.11,111.22-52.7,111.22-113.91v-253.54h.06v-130.6c0-1.31,0-2.63-.06-3.94Z"/></svg>