<?xml version="1.0" encoding="UTF-8"?><svg id="Camada_1" xmlns="http://www.w3.org/2000/svg" viewBox="0 0 1080 1080"><defs><style>.cls-1{fill:#c76700;}.cls-2{fill:#2c4134;}</style></defs><path class="cls-1" d="M364.52,699.01h11.39c4.68,0,7.1,2.67,7.1,7.91,0,5.52-2.43,8.37-7.1,8.37h-9.04v10.09h-2.36v-26.37ZM380.66,706.92c0-4.25-1.65-6.43-4.82-6.43h-8.96v13.32h9.11c3.09,0,4.68-2.36,4.68-6.89Z"/><path class="cls-1" d="M419.78,698.73c7.24,0,12.73,5.8,12.73,13.46,0,8.09-5.1,13.46-12.73,13.46s-12.76-5.38-12.76-13.46c0-7.66,5.48-13.46,12.76-13.46ZM419.78,724.11c6.12,0,10.2-4.78,10.2-11.92s-4.39-11.92-10.2-11.92-10.23,5.13-10.23,11.92c0,7.14,4.08,11.92,10.23,11.92Z"/><path class="cls-1" d="M456.5,699.01h8.3c9.53,0,14.41,4.46,14.41,13.18s-4.29,13.18-13.36,13.18h-9.35v-26.37ZM465.75,723.9c7.42,0,10.93-3.76,10.93-11.71s-4.01-11.71-11.78-11.71h-6.05v23.24c2.07,0,4.82.18,6.89.18Z"/><path class="cls-1" d="M515.98,698.73c7.24,0,12.73,5.8,12.73,13.46,0,8.09-5.1,13.46-12.73,13.46s-12.76-5.38-12.76-13.46c0-7.66,5.48-13.46,12.76-13.46ZM515.98,724.11c6.12,0,10.2-4.78,10.2-11.92s-4.39-11.92-10.2-11.92-10.23,5.13-10.23,11.92c0,7.14,4.08,11.92,10.23,11.92ZM520.51,690.92l-3.59,5.27h-1.9l2.74-5.27h2.74Z"/><path class="cls-1" d="M552.7,725.38v-26.37h2.32v24.64h12.8v1.72h-15.12Z"/><path class="cls-1" d="M604.58,698.73c7.24,0,12.73,5.8,12.73,13.46,0,8.09-5.1,13.46-12.73,13.46s-12.76-5.38-12.76-13.46c0-7.66,5.48-13.46,12.76-13.46ZM604.58,724.11c6.12,0,10.2-4.78,10.2-11.92s-4.39-11.92-10.2-11.92-10.23,5.13-10.23,11.92c0,7.14,4.08,11.92,10.23,11.92Z"/><path class="cls-1" d="M665.85,721.9c-2.71,2.25-6.75,3.76-11.11,3.76-8.05,0-13.43-5.38-13.43-13.46s5.38-13.46,13.43-13.46c4.92,0,8.96,2.81,10.41,7.07,0,.18.14.42.18.6l-.81.39c-.28.11-.56.25-.84.39-1.09-4.04-4.64-6.71-8.93-6.71-6.54,0-10.9,4.71-10.9,11.74s4.36,11.74,10.9,11.74c3.59,0,6.89-1.23,9.07-3.06v-7.7h-11.07v-1.55h13.11v10.27Z"/><path class="cls-1" d="M689.92,725.2l11.5-26.19h2.57l11.43,26.19s.07.18.07.18h-2.6l-2.88-6.68h-14.91l-2.92,6.68h-2.32l.07-.18ZM702.54,701.47l-6.79,15.64h13.54l-6.75-15.64Z"/><path class="cls-2" d="M219.64,573.86v80.85h-7.4v-69.82l-32.96,69.82h-2.42l-35.51-67.39v67.39h-1.34v-80.85h3.5l38.21,72.64,34.3-72.64h3.63Z"/><path class="cls-2" d="M241.03,570.97h0c1.72,1.76,1.72,4.57,0,6.32h0c-1.77,1.81-4.68,1.81-6.46,0h0c-1.72-1.76-1.72-4.57,0-6.32h0c1.77-1.81,4.68-1.81,6.46,0ZM233.63,654.71v-67.26h8.07v67.26h-8.07Z"/><path class="cls-2" d="M255.96,654.71v-92.41h8.07v92.41h-8.07Z"/><path class="cls-2" d="M334.11,606.95h-52.73l.67-1.34h45.06c-.27-11.57-13.86-16.68-22.73-16.68-12.38,0-22.73,9.28-22.73,27.71,0,36.45,44.66,46.95,56.5,17.49l1.21.54c-4.98,13.86-21.39,21.39-32.96,21.39-22.06,0-31.61-15.2-31.61-31.34,0-21.66,13.72-38.61,35.92-38.61,10.9,0,25.29,5.92,25.29,18.43,0,1.34-.4,2.42-1.88,2.42Z"/><path class="cls-2" d="M354.16,587.45v16.81c3.9-7.94,14.26-18.16,27.17-18.16s21.66,7.13,21.66,20.31v48.29h-8.07v-48.56c0-8.34-4.04-17.76-16.01-17.76-10.9,0-22.06,10.09-24.75,19.91v46.41h-8.07v-67.26h8.07Z"/><path class="cls-2" d="M420.61,608.03c0-11.3,16.28-21.93,30.94-21.93,9.41,0,20.58,3.77,20.58,15.47,0,23-51.12,14.39-51.12,36.86,0,8.34,7,12.91,14.12,12.91,14.26,0,21.12-11.03,26.9-15.6,1.61-1.21,3.36-2.02,4.84-2.02,2.56,0,4.04,1.48,4.04,4.04v16.95c-10.76,0-10.9-10.36-9.55-16.68-9.68,10.36-19.64,18.16-31.88,18.16-10.23,0-17.76-6.73-17.76-15.34,0-13.72,16.28-16.95,30.67-20.99,10.09-2.82,21.66-6.73,21.66-18.7,0-8.74-6.46-13.59-14.66-13.59-9.55,0-20.31,7-20.31,20.45h-8.48Z"/><path class="cls-2" d="M557.01,573.86l27.04,71.3,21.79-71.3h1.48l-24.75,80.85h-3.5l-19.23-50.44-15.74,50.44h-4.44l-32.15-80.85h8.74l28.92,73.04,13.99-44.93-10.9-28.11h8.74Z"/><path class="cls-2" d="M664.23,654.71v-16.81c-3.9,7.94-14.26,18.16-27.17,18.16s-21.66-7.13-21.66-20.31v-48.29h8.07v48.56c0,8.34,4.04,17.76,16.01,17.76,10.9,0,22.06-10.09,24.75-19.91v-46.41h8.07v67.26h-8.07ZM633.42,571.98c0-2.29,1.89-4.3,4.3-4.3,2.29,0,4.17,1.88,4.17,4.3,0,2.29-1.88,4.17-4.17,4.17-2.42,0-4.3-1.88-4.3-4.17ZM647.14,571.98c0-2.29,1.88-4.3,4.3-4.3,2.29,0,4.17,2.02,4.17,4.3s-1.88,4.17-4.17,4.17c-2.42,0-4.3-1.88-4.3-4.17Z"/><path class="cls-2" d="M697.86,587.45v16.81c3.9-7.94,14.26-18.16,27.17-18.16s21.66,7.13,21.66,20.31v48.29h-8.07v-48.56c0-8.34-4.04-17.76-16.01-17.76-10.9,0-22.06,10.09-24.75,19.91v46.41h-8.07v-67.26h8.07Z"/><path class="cls-2" d="M780.99,586.1c7.94,0,14.53,2.69,19.37,6.05l-5.65,5.38c-7.4-5.11-13.99-7.26-20.18-7.26-7,0-15.2,3.09-15.2,11.3,0,18.7,45.06,12.11,45.06,33.5.14,9.01-8.07,20.99-25.42,20.99-12.24,0-18.7-2.83-23.54-6.05l6.59-6.19c4.57,4.84,13.72,8.74,22.06,8.74,7.26,0,16.82-4.44,16.82-12.78-.14-18.56-45.47-11.43-45.47-32.82,0-8.74,8.21-20.85,25.56-20.85Z"/><path class="cls-2" d="M872.33,595.79l-5.65,6.73c-6.32-8.48-16.41-13.59-25.29-13.59-12.38,0-22.73,9.28-22.73,27.71,0,36.45,44.66,46.95,56.5,17.49l1.21.54c-4.98,13.86-21.39,21.39-32.96,21.39-22.06,0-31.61-15.2-31.61-31.34,0-21.66,13.72-38.61,35.92-38.61,11.84,0,19.64,4.04,24.62,9.69Z"/><path class="cls-2" d="M891.17,562.29v41.97c3.9-7.94,14.26-18.16,27.17-18.16s21.66,7.13,21.66,20.31v48.29h-8.07v-48.56c0-8.34-4.04-17.76-16.01-17.76-10.9,0-22.06,10.09-24.75,19.91v46.41h-8.07v-92.41h8.07Z"/><path class="cls-1" d="M592,381.61h-.38v.02c.19.83.36,1.67.51,2.52,9.83.72,17.6,8.93,17.6,18.93v81.02c0,22.56-18.35,40.91-40.91,40.91h-47.45c-25.99,0-30.57-24.07-30.83-39.45v-85.18c0-11.91,9.68-21.59,21.59-21.59,14.27,0,16.41,13.54,16.41,21.59v79.68h2.52v-79.68c0-12.71,7.86-21.59,19.1-21.59s19.02,8.89,19.02,21.59v79.68h2.54v-79.68c0-14.21-8.86-24.13-21.56-24.13-9.67,0-17.12,5.72-20.15,14.69-2.36-9.44-8.59-14.69-17.88-14.69-13.3,0-24.13,10.83-24.13,24.13v55.44h-.01v28.28c0,.28,0,.57.01.85.04,4.62.43,8.86,1.16,12.78l.51,2.55c4,17.52,15.06,27.26,31.69,27.26h47.45c23.96,0,43.45-19.49,43.45-43.45v-81.02c0-11.45-8.97-20.83-20.26-21.48Z"/><path class="cls-2" d="M592,396.94c-.04-5.51-.58-10.53-1.6-15.04-3.93-17.71-15.04-27.56-31.77-27.56h-47.45c-23.96,0-43.45,19.49-43.45,43.45v81.01c0,11.45,8.97,20.84,20.26,21.5h.42l-.47-2.3c-.01-.09-.04-.17-.05-.26-9.84-.71-17.62-8.92-17.62-18.93v-81.01c0-22.56,18.35-40.91,40.91-40.91h47.45c25.99,0,30.57,24.06,30.83,39.45v84.83c0,11.86-9.43,21.77-21.29,21.93-14.55.19-16.72-13.46-16.72-21.59v-79.67h-2.52v79.67c0,12.72-7.86,21.59-19.1,21.59s-19.02-8.87-19.02-21.59v-79.67h-2.54v79.67c0,14.21,8.86,24.13,21.56,24.13,9.67,0,17.12-5.72,20.15-14.68,2.36,9.45,8.61,14.7,17.93,14.68,13.25-.02,24.08-11.41,24.08-24.66v-54.9h.01v-28.28c0-.28,0-.57-.01-.85Z"/></svg>